<svg width="64" height="64" viewBox="0 0 64 64" fill="none" xmlns="http://www.w3.org/2000/svg">
<ellipse cx="32.244" cy="31.5788" rx="31.5863" ry="31.5788" fill="#38CEC5"/>
<path d="M15.9479 45.3249C20.919 42.5158 26.5339 41.0437 32.2441 41.0523C38.1665 41.0523 43.7265 42.6036 48.5403 45.3249M39.351 26.8419C39.351 28.7263 38.6022 30.5336 37.2694 31.8661C35.9366 33.1985 34.129 33.9471 32.2441 33.9471C30.3592 33.9471 28.5515 33.1985 27.2187 31.8661C25.8859 30.5336 25.1372 28.7263 25.1372 26.8419C25.1372 24.9575 25.8859 23.1502 27.2187 21.8178C28.5515 20.4853 30.3592 19.7367 32.2441 19.7367C34.129 19.7367 35.9366 20.4853 37.2694 21.8178C38.6022 23.1502 39.351 24.9575 39.351 26.8419ZM53.5648 31.5787C53.5648 34.3779 53.0134 37.1497 51.9419 39.7359C50.8704 42.322 49.3 44.6718 47.3201 46.6512C45.3403 48.6305 42.9899 50.2006 40.4032 51.2718C37.8164 52.343 35.044 52.8944 32.2441 52.8944C29.4442 52.8944 26.6717 52.343 24.085 51.2718C21.4982 50.2006 19.1479 48.6305 17.168 46.6512C15.1882 44.6718 13.6178 42.322 12.5463 39.7359C11.4748 37.1497 10.9233 34.3779 10.9233 31.5787C10.9233 25.9255 13.1696 20.5037 17.168 16.5063C21.1665 12.5088 26.5895 10.2631 32.2441 10.2631C37.8987 10.2631 43.3217 12.5088 47.3201 16.5063C51.3186 20.5037 53.5648 25.9255 53.5648 31.5787Z" stroke="white" stroke-width="4.725" stroke-linecap="round" stroke-linejoin="round"/>
</svg>
