<svg width="49" height="49" viewBox="0 0 49 49" fill="none" xmlns="http://www.w3.org/2000/svg">
<path d="M21.0802 8.81388C21.95 5.22871 27.05 5.22871 27.9198 8.81388C28.0503 9.35247 28.3061 9.85263 28.6665 10.2737C29.0268 10.6947 29.4814 11.0247 29.9934 11.2368C30.5054 11.4489 31.0602 11.5372 31.6127 11.4943C32.1652 11.4515 32.6998 11.2788 33.173 10.9903C36.3233 9.07112 39.9309 12.6767 38.0118 15.829C37.7237 16.302 37.5513 16.8363 37.5085 17.3884C37.4658 17.9406 37.5539 18.495 37.7658 19.0067C37.9777 19.5183 38.3073 19.9728 38.7278 20.3331C39.1484 20.6934 39.648 20.9493 40.1861 21.0802C43.7713 21.95 43.7713 27.05 40.1861 27.9198C39.6475 28.0503 39.1474 28.3061 38.7263 28.6665C38.3053 29.0268 37.9753 29.4814 37.7632 29.9934C37.5511 30.5054 37.4628 31.0602 37.5057 31.6127C37.5485 32.1652 37.7212 32.6998 38.0097 33.173C39.9289 36.3233 36.3233 39.9309 33.171 38.0118C32.698 37.7237 32.1637 37.5513 31.6116 37.5085C31.0594 37.4658 30.505 37.5539 29.9934 37.7658C29.4817 37.9777 29.0272 38.3073 28.6669 38.7278C28.3066 39.1484 28.0507 39.648 27.9198 40.1861C27.05 43.7713 21.95 43.7713 21.0802 40.1861C20.9497 39.6475 20.6939 39.1474 20.3336 38.7263C19.9732 38.3053 19.5186 37.9753 19.0066 37.7632C18.4946 37.5511 17.9398 37.4628 17.3873 37.5057C16.8348 37.5485 16.3002 37.7212 15.827 38.0097C12.6767 39.9289 9.06908 36.3233 10.9883 33.171C11.2763 32.698 11.4487 32.1637 11.4915 31.6116C11.5342 31.0594 11.4461 30.505 11.2342 29.9934C11.0223 29.4817 10.6927 29.0272 10.2722 28.6669C9.85162 28.3066 9.35198 28.0507 8.81388 27.9198C5.22871 27.05 5.22871 21.95 8.81388 21.0802C9.35247 20.9497 9.85263 20.6939 10.2737 20.3336C10.6947 19.9732 11.0247 19.5186 11.2368 19.0066C11.4489 18.4946 11.5372 17.9398 11.4943 17.3873C11.4515 16.8348 11.2788 16.3002 10.9903 15.827C9.07112 12.6767 12.6767 9.06908 15.829 10.9883C17.8625 12.2296 20.5167 11.1312 21.0802 8.81388Z" stroke="white" stroke-width="4.08333" stroke-linecap="round" stroke-linejoin="round"/>
<path d="M30.625 24.5C30.625 26.1245 29.9797 27.6824 28.831 28.831C27.6824 29.9797 26.1245 30.625 24.5 30.625C22.8755 30.625 21.3176 29.9797 20.169 28.831C19.0203 27.6824 18.375 26.1245 18.375 24.5C18.375 22.8755 19.0203 21.3176 20.169 20.169C21.3176 19.0203 22.8755 18.375 24.5 18.375C26.1245 18.375 27.6824 19.0203 28.831 20.169C29.9797 21.3176 30.625 22.8755 30.625 24.5V24.5Z" stroke="white" stroke-width="4.08333" stroke-linecap="round" stroke-linejoin="round"/>
</svg>
