<svg width="49" height="49" viewBox="0 0 49 49" fill="none" xmlns="http://www.w3.org/2000/svg">
<path d="M41.6238 24.9199C41.5093 24.9209 41.3989 24.8782 41.3149 24.8008L40.6142 24.1001L37.2 20.6859V25.5143V41.6501C37.2 41.7694 37.1526 41.8839 37.0682 41.9683C36.9838 42.0526 36.8694 42.1001 36.75 42.1001H31.85C31.7307 42.1001 31.6162 42.0526 31.5318 41.9683C31.4474 41.8839 31.4 41.7694 31.4 41.6501V36.7501C31.4 35.5698 30.9312 34.438 30.0966 33.6034L28.6824 35.0176L30.0966 33.6034C29.2621 32.7689 28.1302 32.3001 26.95 32.3001H22.05C20.8698 32.3001 19.7379 32.7689 18.9034 33.6034L20.2233 34.9234L18.9034 33.6034C18.0689 34.438 17.6 35.5698 17.6 36.7501V41.6501C17.6 41.7694 17.5526 41.8839 17.4682 41.9683C17.3838 42.0526 17.2694 42.1001 17.15 42.1001H12.25C12.1307 42.1001 12.0162 42.0526 11.9318 41.9683C11.8474 41.8839 11.8 41.7694 11.8 41.6501V25.5143V20.6859L8.3858 24.1001L7.68516 24.8008C7.60116 24.8782 7.49072 24.9209 7.37621 24.9199C7.25822 24.9189 7.14535 24.8716 7.06192 24.7881C6.97849 24.7047 6.93116 24.5918 6.93014 24.4739C6.92914 24.3594 6.97183 24.2489 7.04928 24.1649L24.1819 7.03233C24.2663 6.94797 24.3807 6.90057 24.5 6.90057C24.6193 6.90057 24.7338 6.94797 24.8182 7.03233L41.9508 24.1649C42.0282 24.2489 42.0709 24.3593 42.0699 24.4739C42.0689 24.5918 42.0215 24.7047 41.9381 24.7881C41.8547 24.8716 41.7418 24.9189 41.6238 24.9199Z" stroke="white" stroke-width="4"/>
</svg>
