<svg width="40" height="40" viewBox="0 0 40 40" fill="none" xmlns="http://www.w3.org/2000/svg">
<circle cx="20" cy="20" r="20" fill="#E8F1F1"/>
<path d="M9.6815 28.7055C12.8291 26.9264 16.3844 25.9941 20 25.9995C23.75 25.9995 27.2705 26.982 30.3185 28.7055M24.5 16.9995C24.5 18.193 24.0259 19.3376 23.182 20.1815C22.3381 21.0254 21.1935 21.4995 20 21.4995C18.8065 21.4995 17.6619 21.0254 16.818 20.1815C15.9741 19.3376 15.5 18.193 15.5 16.9995C15.5 15.8061 15.9741 14.6615 16.818 13.8176C17.6619 12.9736 18.8065 12.4995 20 12.4995C21.1935 12.4995 22.3381 12.9736 23.182 13.8176C24.0259 14.6615 24.5 15.8061 24.5 16.9995ZM33.5 19.9995C33.5 21.7724 33.1508 23.5279 32.4724 25.1658C31.7939 26.8037 30.7995 28.2919 29.5459 29.5455C28.2923 30.7991 26.8041 31.7935 25.1662 32.4719C23.5283 33.1503 21.7728 33.4995 20 33.4995C18.2272 33.4995 16.4717 33.1503 14.8338 32.4719C13.1959 31.7935 11.7076 30.7991 10.4541 29.5455C9.20047 28.2919 8.20606 26.8037 7.52763 25.1658C6.84919 23.5279 6.5 21.7724 6.5 19.9995C6.5 16.4191 7.92232 12.9853 10.4541 10.4536C12.9858 7.92186 16.4196 6.49954 20 6.49954C23.5804 6.49954 27.0142 7.92186 29.5459 10.4536C32.0777 12.9853 33.5 16.4191 33.5 19.9995Z" stroke="white" stroke-width="4.725" stroke-linecap="round" stroke-linejoin="round"/>
</svg>
