<svg width="49" height="49" viewBox="0 0 49 49" fill="none" xmlns="http://www.w3.org/2000/svg">
<path d="M14.4685 11.3701L14.4683 11.37C12.4498 10.1401 10.1402 12.4497 11.3699 14.4681L14.4685 11.3701ZM14.4685 11.3701C15.1748 11.8004 15.9727 12.0578 16.7973 12.1214C17.6219 12.185 18.4499 12.0531 19.2138 11.7363C19.9778 11.4195 20.6561 10.9267 21.1937 10.2982C21.7313 9.66973 22.1129 8.92318 22.3074 8.11934L20.8495 7.7665L22.3069 8.1215C22.8564 5.86575 26.0221 5.82685 26.6618 8.0048L26.6902 8.12213M14.4685 11.3701L26.6902 8.12213M8.12321 22.3095L8.12285 22.3096C5.8245 22.8676 5.82884 26.1349 8.12197 26.6902L8.12212 26.6902C8.92617 26.885 9.67285 27.2669 10.3014 27.8049C10.9299 28.3429 11.4224 29.0217 11.7389 29.7861C12.0554 30.5505 12.187 31.3788 12.1228 32.2036C12.0586 33.0281 11.8007 33.8257 11.37 34.5317C10.1403 36.5499 12.4491 38.8592 14.4674 37.6305C15.1736 37.1995 15.9716 36.9414 16.7964 36.8772L16.9128 38.3727L16.7964 36.8772C17.6212 36.813 18.4495 36.9445 19.2139 37.2611C19.9783 37.5776 20.6571 38.0701 21.1951 38.6986L20.0555 39.674L21.1951 38.6986C21.7329 39.327 22.1147 40.0734 22.3096 40.8771C22.8676 43.1755 26.1349 43.1712 26.6902 40.878L26.6905 40.8766C26.8859 40.0731 27.2682 39.3271 27.8062 38.6991L28.9453 39.675L27.8062 38.6991C28.3442 38.0711 29.0227 37.579 29.7867 37.2626C30.5507 36.9463 31.3786 36.8146 32.203 36.8784C33.0275 36.9422 33.8252 37.1997 34.5315 37.6298L34.5317 37.63C36.5502 38.8599 38.8599 36.5502 37.63 34.5317L37.6298 34.5315C37.1997 33.8252 36.9422 33.0275 36.8784 32.203C36.8146 31.3786 36.9463 30.5507 37.2626 29.7867C37.579 29.0227 38.0711 28.3442 38.6991 27.8062C39.327 27.2682 40.0731 26.8859 40.8766 26.6905L40.8771 26.6904C43.1755 26.1324 43.1712 22.8651 40.878 22.3098L40.8779 22.3098C40.0738 22.115 39.3271 21.7331 38.6986 21.1951C38.0701 20.6571 37.5776 19.9783 37.261 19.2139C36.9445 18.4495 36.813 17.6212 36.8772 16.7964C36.9414 15.9719 37.1993 15.1743 37.63 14.4683C38.8598 12.45 36.5505 10.1405 34.5321 11.3698L8.12321 22.3095ZM8.12321 22.3095C11.5792 21.4695 13.2218 17.5068 11.37 14.4683L8.12321 22.3095ZM26.6902 8.12213C26.885 8.92618 27.2669 9.67286 27.8049 10.3014C28.3429 10.9299 29.0217 11.4224 29.7861 11.7389C30.5505 12.0555 31.3788 12.187 32.2036 12.1228C33.0281 12.0586 33.8257 11.8007 34.5317 11.37L26.6902 8.12213ZM24.5 33.35C26.8472 33.35 29.0982 32.4176 30.7579 30.7579C32.4176 29.0982 33.35 26.8472 33.35 24.5C33.35 22.1528 32.4176 19.9018 30.7579 18.2421C29.0982 16.5824 26.8472 15.65 24.5 15.65C22.1528 15.65 19.9018 16.5824 18.2421 18.2421C16.5824 19.9018 15.65 22.1528 15.65 24.5C15.65 26.8472 16.5824 29.0982 18.2421 30.7579C19.9018 32.4176 22.1528 33.35 24.5 33.35Z" stroke="white" stroke-width="3"/>
</svg>
