<svg width="49" height="49" viewBox="0 0 49 49" fill="none" xmlns="http://www.w3.org/2000/svg">
<path d="M10.4554 36.3498C14.7396 33.9283 19.5787 32.6592 24.5 32.6667C29.6042 32.6667 34.396 34.004 38.5446 36.3498M30.625 20.4167C30.625 22.0411 29.9797 23.599 28.831 24.7477C27.6824 25.8964 26.1245 26.5417 24.5 26.5417C22.8755 26.5417 21.3176 25.8964 20.169 24.7477C19.0203 23.599 18.375 22.0411 18.375 20.4167C18.375 18.7922 19.0203 17.2343 20.169 16.0856C21.3176 14.937 22.8755 14.2917 24.5 14.2917C26.1245 14.2917 27.6824 14.937 28.831 16.0856C29.9797 17.2343 30.625 18.7922 30.625 20.4167ZM42.875 24.5C42.875 26.913 42.3997 29.3025 41.4763 31.5318C40.5529 33.7612 39.1994 35.7868 37.4931 37.4931C35.7868 39.1994 33.7612 40.5529 31.5318 41.4763C29.3025 42.3997 26.913 42.875 24.5 42.875C22.087 42.875 19.6975 42.3997 17.4682 41.4763C15.2388 40.5529 13.2132 39.1994 11.5069 37.4931C9.80064 35.7868 8.44714 33.7612 7.52371 31.5318C6.60028 29.3025 6.125 26.913 6.125 24.5C6.125 19.6266 8.06093 14.9529 11.5069 11.5069C14.9529 8.06093 19.6266 6.125 24.5 6.125C29.3734 6.125 34.0471 8.06093 37.4931 11.5069C40.9391 14.9529 42.875 19.6266 42.875 24.5Z" stroke="white" stroke-width="4.08333" stroke-linecap="round" stroke-linejoin="round"/>
</svg>
