<svg width="49" height="49" viewBox="0 0 49 49" fill="none" xmlns="http://www.w3.org/2000/svg">
<mask id="path-1-inside-1" fill="white">
<path d="M24.5 4.89999C20.6013 4.89999 16.8623 6.44874 14.1055 9.20552C11.3487 11.9623 9.8 15.7013 9.8 19.6V28.3857L8.06785 30.1178C7.72532 30.4605 7.49206 30.897 7.39757 31.3722C7.30308 31.8473 7.3516 32.3399 7.53699 32.7875C7.72238 33.2351 8.03632 33.6177 8.43913 33.8869C8.84193 34.1561 9.31551 34.2999 9.8 34.3H39.2C39.6845 34.2999 40.1581 34.1561 40.5609 33.8869C40.9637 33.6177 41.2776 33.2351 41.463 32.7875C41.6484 32.3399 41.6969 31.8473 41.6024 31.3722C41.5079 30.897 41.2747 30.4605 40.9322 30.1178L39.2 28.3857V19.6C39.2 15.7013 37.6513 11.9623 34.8945 9.20552C32.1377 6.44874 28.3987 4.89999 24.5 4.89999ZM24.5 44.1C22.5507 44.1 20.6812 43.3256 19.3028 41.9472C17.9244 40.5688 17.15 38.6993 17.15 36.75H31.85C31.85 38.6993 31.0756 40.5688 29.6972 41.9472C28.3188 43.3256 26.4493 44.1 24.5 44.1Z"/>
</mask>
<path d="M9.8 19.6H4.8H9.8ZM9.8 28.3857L13.3355 31.9212L14.8 30.4568V28.3857H9.8ZM8.06785 30.1178L4.53232 26.5823L4.53178 26.5828L8.06785 30.1178ZM9.8 34.3L9.79893 39.3H9.8V34.3ZM39.2 34.3V39.3H39.2011L39.2 34.3ZM40.9322 30.1178L44.4682 26.5828L44.4677 26.5823L40.9322 30.1178ZM39.2 28.3857H34.2V30.4568L35.6645 31.9212L39.2 28.3857ZM24.5 44.1V49.1V44.1ZM17.15 36.75V31.75H12.15V36.75H17.15ZM31.85 36.75H36.85V31.75H31.85V36.75ZM24.5 -0.100006C19.2752 -0.100006 14.2645 1.97552 10.57 5.66999L17.6411 12.7411C19.4602 10.922 21.9274 9.89999 24.5 9.89999V-0.100006ZM10.57 5.66999C6.87553 9.36446 4.8 14.3752 4.8 19.6H14.8C14.8 17.0274 15.822 14.5602 17.6411 12.7411L10.57 5.66999ZM4.8 19.6V28.3857H14.8V19.6H4.8ZM6.26447 24.8502L4.53232 26.5823L11.6034 33.6534L13.3355 31.9212L6.26447 24.8502ZM4.53178 26.5828C3.4902 27.6247 2.78091 28.9521 2.49359 30.397L12.3016 32.3473C12.2032 32.8419 11.9604 33.2962 11.6039 33.6528L4.53178 26.5828ZM2.49359 30.397C2.20626 31.842 2.35379 33.3397 2.91753 34.7008L12.1564 30.8742C12.3494 31.3401 12.3999 31.8527 12.3016 32.3473L2.49359 30.397ZM2.91753 34.7008C3.48127 36.0619 4.43591 37.2253 5.66077 38.0439L11.2175 29.7299C11.6367 30.0101 11.9635 30.4083 12.1564 30.8742L2.91753 34.7008ZM5.66077 38.0439C6.88562 38.8626 8.3257 39.2997 9.79893 39.3L9.80107 29.3C10.3053 29.3001 10.7982 29.4497 11.2175 29.7299L5.66077 38.0439ZM9.8 39.3H39.2V29.3H9.8V39.3ZM39.2011 39.3C40.6743 39.2997 42.1144 38.8626 43.3392 38.0439L37.7825 29.7299C38.2018 29.4497 38.6947 29.3001 39.1989 29.3L39.2011 39.3ZM43.3392 38.0439C44.5641 37.2253 45.5187 36.0619 46.0825 34.7008L36.8436 30.8742C37.0365 30.4083 37.3633 30.0101 37.7825 29.7299L43.3392 38.0439ZM46.0825 34.7008C46.6462 33.3397 46.7937 31.842 46.5064 30.397L36.6984 32.3473C36.6001 31.8527 36.6506 31.3401 36.8436 30.8742L46.0825 34.7008ZM46.5064 30.397C46.2191 28.9521 45.5098 27.6247 44.4682 26.5828L37.3961 33.6528C37.0396 33.2962 36.7968 32.8419 36.6984 32.3473L46.5064 30.397ZM44.4677 26.5823L42.7355 24.8502L35.6645 31.9212L37.3966 33.6534L44.4677 26.5823ZM44.2 28.3857V19.6H34.2V28.3857H44.2ZM44.2 19.6C44.2 14.3752 42.1245 9.36446 38.43 5.66999L31.3589 12.7411C33.178 14.5602 34.2 17.0274 34.2 19.6H44.2ZM38.43 5.66999C34.7355 1.97552 29.7248 -0.100006 24.5 -0.100006V9.89999C27.0726 9.89999 29.5398 10.922 31.3589 12.7411L38.43 5.66999ZM24.5 39.1C23.8767 39.1 23.279 38.8524 22.8383 38.4117L15.7672 45.4828C18.0833 47.7988 21.2246 49.1 24.5 49.1V39.1ZM22.8383 38.4117C22.3976 37.971 22.15 37.3732 22.15 36.75H12.15C12.15 40.0254 13.4512 43.1667 15.7672 45.4828L22.8383 38.4117ZM17.15 41.75H31.85V31.75H17.15V41.75ZM26.85 36.75C26.85 37.3733 26.6024 37.971 26.1617 38.4117L33.2328 45.4828C35.5488 43.1667 36.85 40.0254 36.85 36.75H26.85ZM26.1617 38.4117C25.721 38.8524 25.1233 39.1 24.5 39.1V49.1C27.7754 49.1 30.9167 47.7988 33.2328 45.4828L26.1617 38.4117Z" fill="white" mask="url(#path-1-inside-1)"/>
</svg>
